<?xml version="1.0" standalone="no"?>
<!DOCTYPE svg PUBLIC "-//W3C//DTD SVG 20010904//EN"
 "http://www.w3.org/TR/2001/REC-SVG-20010904/DTD/svg10.dtd">
<svg version="1.0" xmlns="http://www.w3.org/2000/svg"
 width="202.000000pt" height="202.000000pt" viewBox="0 0 202.000000 202.000000"
 preserveAspectRatio="xMidYMid meet">
<metadata>
Created by potrace 1.14, written by Peter Selinger 2001-2017
</metadata>
<g transform="translate(0.000000,202.000000) scale(0.100000,-0.100000)"
fill="#000000" stroke="none">
<path d="M160 1341 c0 -4 15 -11 33 -16 l32 -10 0 -305 0 -305 -32 -10 c-63
-18 -32 -25 107 -25 87 0 140 4 140 10 0 6 -13 10 -28 10 -59 0 -67 16 -67
142 l0 113 75 2 c125 5 196 40 231 117 22 49 25 136 5 175 -26 49 -80 88 -138
100 -57 12 -358 13 -358 2z m349 -45 c41 -39 54 -98 41 -188 -8 -56 -16 -79
-37 -100 -30 -31 -88 -51 -136 -46 l-32 3 -3 159 c-3 199 2 211 84 204 42 -4
61 -11 83 -32z"/>
<path d="M740 1340 c0 -6 9 -10 19 -10 11 0 27 -7 35 -16 14 -13 16 -55 16
-304 0 -249 -2 -291 -16 -304 -8 -9 -24 -16 -35 -16 -10 0 -19 -5 -19 -11 0
-8 58 -10 193 -7 184 3 195 4 242 29 61 31 95 84 95 147 0 88 -47 143 -140
165 -55 13 -63 22 -26 31 14 3 38 18 56 32 89 75 78 193 -22 246 -39 20 -59
23 -220 25 -112 2 -178 -1 -178 -7z m310 -23 c53 -26 77 -136 46 -211 -22 -52
-60 -76 -122 -76 l-54 0 0 134 c0 109 3 138 16 150 19 19 79 21 114 3z m25
-317 c17 -6 41 -27 55 -46 20 -30 24 -47 23 -95 -3 -81 -26 -127 -77 -150 -55
-25 -111 -24 -136 1 -18 18 -20 33 -20 166 l0 145 63 -5 c34 -3 76 -10 92 -16z"/>
<path d="M1474 1044 c-100 -258 -123 -310 -151 -334 -18 -16 -33 -32 -33 -35
0 -3 43 -5 95 -5 95 0 125 12 60 24 -19 4 -37 11 -41 17 -14 23 -6 78 20 147
l28 73 111 -3 112 -3 32 -80 c18 -44 32 -95 33 -113 0 -28 -4 -33 -30 -38 -65
-13 -24 -24 90 -24 66 0 120 2 120 4 0 3 -12 17 -27 33 -20 20 -64 120 -147
336 -91 235 -123 307 -136 307 -13 0 -45 -72 -136 -306z m117 109 c12 -38 35
-98 50 -135 l28 -68 -104 0 -105 0 26 68 c14 37 37 97 51 135 14 37 27 67 28
67 2 0 13 -30 26 -67z"/>
</g>
</svg>
